PathFileType	4	(X/Y/Z)	28_1_30_p1_0-250_filt_butterworth.trc
DataRate	CameraRate	NumFrames	NumMarkers	Units	OrigDataRate	OrigDataStartFrame	OrigNumFrames
59.0	59.0	4	27	m	59.0	0	250
Frame#	Time	RHip			RKnee			RAnkle			RBigToe			RSmallToe			RHeel			LHip			LKnee			LAnkle			LBigToe			LSmallToe			LHeel			Neck			Head			Nose			RShoulder			RElbow			RWrist			RThumb			RIndex			RPinky			LShoulder			LElbow			LWrist			LThumb			LIndex			LPinky			
		X1	Y1	Z1	X2	Y2	Z2	X3	Y3	Z3	X4	Y4	Z4	X5	Y5	Z5	X6	Y6	Z6	X7	Y7	Z7	X8	Y8	Z8	X9	Y9	Z9	X10	Y10	Z10	X11	Y11	Z11	X12	Y12	Z12	X13	Y13	Z13	X14	Y14	Z14	X15	Y15	Z15	X16	Y16	Z16	X17	Y17	Z17	X18	Y18	Z18	X19	Y19	Z19	X20	Y20	Z20	X21	Y21	Z21	X22	Y22	Z22	X23	Y23	Z23	X24	Y24	Z24	X25	Y25	Z25	X26	Y26	Z26	X27	Y27	Z27	
0	0.0	0.2159702313429924	0.6549545751196115	0.820938508653523	0.22080097242830177	0.2143794365080159	0.9018282893657267	0.20701960788303647	-0.2402009806454392	0.998915936987263	0.1814304550040292	-0.2654579091626963	0.8401727682973348	0.24533394730661284	-0.25656866696432185	0.8359372890173056	0.19175316400224163	-0.32706374724169196	1.1044823145259144	-0.008460565126198416	0.6411513937333169	0.8402447896641305	0.017680266118537687	0.2097507566330476	0.9039837959417331	0.014436167763470259	-0.25931387928197314	1.0259670774812097	0.021677172830344083	-0.24725085174241546	0.8126797895926139	-0.04025926237072434	-0.2727454771690746	0.877674615372907	0.031612436585071325	-0.32981357795335087	1.082506953543534	0.07948102395602955	1.292114582613731	0.838931198982606	0.07930588134442784	1.540262259543354	0.7796727548370792	0.07883146730693749	1.4074098922914295	0.6752682342359743	0.24834994477907876	1.1942029789261133	0.8177358421635754	0.2969803687954266	0.9094329817066648	0.7936901090799121	0.1317583869527039	0.7322905956505005	0.6696833858469834	0.06617080499861597	0.651449257428236	0.7145627939487933	0.05666391213577317	0.6223384987419787	0.7181401425112307	0.07199562982803893	0.6173886267848878	0.7082919891685591	-0.09909606582871101	1.1909243758479116	0.843447456154078	-0.12367345726528878	0.8992445835021247	0.805331107612169	0.03353225957483422	0.7489611532306579	0.6533188319309968	0.1254896712386585	0.6948739202736465	0.6454121835347022	0.12858356466487927	0.6684274015343672	0.6473060166724485	0.09297322735409087	0.6291392886648998	0.6688757522687483	
1	0.0169491525423728	0.21618881308659144	0.6527295875385286	0.8208627179926502	0.22069722999912855	0.21510396793279352	0.8995254722498524	0.20686637650205203	-0.2392392841070285	0.9985982067647804	0.18139395761738747	-0.26886142554887454	0.8450968212829202	0.24628591147234377	-0.25897272768715546	0.8394866732434888	0.19281397401615957	-0.32952398288841434	1.1085663000385193	-0.008722518405586742	0.6400508972827131	0.8402092085360513	0.016965490393691555	0.20785733278998678	0.9062868446825856	0.014225267248788066	-0.2569379658765394	1.0256123744131254	0.02352463225989107	-0.2517696193834722	0.8203050814118409	-0.038920328796420565	-0.27621204363040663	0.8854483324206525	0.03161458348541187	-0.3288832189564831	1.0821149302291302	0.07948231235074338	1.2921115303322226	0.838960082537461	0.07717173559175383	1.5401392858175043	0.7795404761949991	0.07910534756924818	1.4073978243061216	0.6753559502633139	0.24833889139321624	1.1941667988078615	0.8179947697830227	0.29612180252219844	0.9098133763218653	0.791269079135845	0.13173652038298228	0.7322736849275582	0.6696747624248466	0.06475794016894583	0.6504711772450531	0.7091152769329271	0.0570853543245227	0.6200312557410375	0.7188836156189308	0.07175303712296288	0.6173381933389147	0.7079703678093614	-0.09702260068650335	1.191800433651965	0.8373683833825227	-0.12410584063209007	0.8994888574469428	0.8044304615183987	0.03380892767259378	0.7487515864234866	0.6546063532935337	0.12569409856242744	0.69470391149711	0.6454417998475401	0.12874483028935646	0.6667041826675959	0.646568459213581	0.09444558749651293	0.6289370897388368	0.6696155053199977	
2	0.0338983050847457	0.21637527289283034	0.6509468594389806	0.8208185163490982	0.22057067745227654	0.21549341410523806	0.8978870038775684	0.2067352120553876	-0.23844795043983577	0.9983364972718481	0.18188747077114875	-0.27144490431043816	0.8488651944068452	0.24723021849455878	-0.2609496855921366	0.8425051752981856	0.19374577498196932	-0.3317697042832442	1.1120415600254374	-0.008945024358919432	0.6391263520135908	0.8401878149013031	0.01638383785010532	0.20629858099678272	0.9081126238627264	0.014085946509505292	-0.25520262176644903	1.0253809479875684	0.02450927254243476	-0.254565081790932	0.8251172059360018	-0.03812487334566477	-0.2786178216786892	0.890441451094729	0.031647901499348624	-0.32824291252337107	1.0818911258314299	0.07947971430959704	1.2921073449173195	0.8389644596581693	0.07581293745636797	1.540065751773624	0.7794620959780008	0.07889102819984015	1.407367802200008	0.6753571875597492	0.24833592201425023	1.194168300639003	0.8181610957354638	0.2958470585852726	0.9099447107520771	0.7904754336591703	0.13172502023809926	0.7322652168581247	0.6696741228937809	0.06386489379025509	0.6498634843959017	0.705619717022723	0.05726618840963603	0.6186594090620035	0.7190678763057962	0.07169661206623086	0.6173621837031746	0.7075697388477085	-0.0957191889878368	1.1922513531925156	0.8335316545301843	-0.12393782090120002	0.8994354257747574	0.8051201815807543	0.03428096452858401	0.7483071130588129	0.6564777408702285	0.12581088176169508	0.6945911443286661	0.6454743445748575	0.12885356756871136	0.6656268410994151	0.6463259863957992	0.0953901414199808	0.6288278563243703	0.6700998337502504	
3	0.0508474576271186	0.2165318298865947	0.6495686991520446	0.820802808980174	0.22042213758180587	0.21558400361416155	0.896846013766961	0.20662454576291042	-0.23781326190142943	0.9981262970526955	0.18268452177191835	-0.27324008349670337	0.8514981504072748	0.24809333251488633	-0.2625252317270698	0.8449974762867793	0.19455677935076435	-0.3338102481500395	1.114953640571668	-0.00913055027346668	0.6383674489225112	0.8401787514003771	0.015924146189023543	0.20504642918199859	0.9095043978708024	0.014008816971638001	-0.2540468578525009	1.0252594772625698	0.02480495249082713	-0.2559576635214238	0.8276488963604216	-0.037758134041662186	-0.28014221615927165	0.8931798480463857	0.03170890546167888	-0.3278652184407768	1.0818192460447544	0.07947564031750451	1.2921019270788154	0.83895588646033	0.07507992611215661	1.5400315653124235	0.7794258432169439	0.0783206751348913	1.4073250239642938	0.6752943920678587	0.24833869768931013	1.1941957747805803	0.8182526309210698	0.2960103050012587	0.9098878560359898	0.7909038769432568	0.13172189768410666	0.7322630750161616	0.6696816335711844	0.06339108257689723	0.649553706631529	0.7037058222008925	0.05729600976462397	0.6180012712255758	0.7189426865769272	0.07177672967586637	0.6173809230080669	0.7073351002619142	-0.09503312139266676	1.1923427978317098	0.8315109466851247	-0.12337915262925359	0.8991606792532034	0.8069728124067945	0.03487071798921004	0.7477447808344058	0.6586878994447154	0.12585946496138523	0.6945251188612079	0.6455073270997724	0.12895080070732046	0.6650506856003899	0.6465377887534438	0.09590735784986491	0.62879083513691	0.6703780170264204	
